<?xml version="1.0" encoding="UTF-8" standalone="no"?>
<!-- Created with Inkscape (http://www.inkscape.org/) -->

<svg
   xmlns:dc="http://purl.org/dc/elements/1.1/"
   xmlns:cc="http://creativecommons.org/ns#"
   xmlns:rdf="http://www.w3.org/1999/02/22-rdf-syntax-ns#"
   xmlns:svg="http://www.w3.org/2000/svg"
   xmlns="http://www.w3.org/2000/svg"
   xmlns:sodipodi="http://sodipodi.sourceforge.net/DTD/sodipodi-0.dtd"
   xmlns:inkscape="http://www.inkscape.org/namespaces/inkscape"
   width="40pt"
   height="40pt"
   viewBox="0 0 14.11111 14.111111"
   version="1.1"
   id="svg469"
   inkscape:version="0.92.5 (2060ec1f9f, 2020-04-08)"
   sodipodi:docname="tree2.svg">
  <defs
     id="defs463" />
  <sodipodi:namedview
     id="base"
     pagecolor="#ffffff"
     bordercolor="#666666"
     borderopacity="1.0"
     inkscape:pageopacity="0.0"
     inkscape:pageshadow="2"
     inkscape:zoom="3.959798"
     inkscape:cx="88.873016"
     inkscape:cy="-13.766646"
     inkscape:document-units="mm"
     inkscape:current-layer="layer1"
     showgrid="false"
     units="pt"
     inkscape:window-width="1920"
     inkscape:window-height="1015"
     inkscape:window-x="0"
     inkscape:window-y="0"
     inkscape:window-maximized="1" />
  <metadata
     id="metadata466">
    <rdf:RDF>
      <cc:Work
         rdf:about="">
        <dc:format>image/svg+xml</dc:format>
        <dc:type
           rdf:resource="http://purl.org/dc/dcmitype/StillImage" />
        <dc:title></dc:title>
      </cc:Work>
    </rdf:RDF>
  </metadata>
  <g
     inkscape:label="Layer 1"
     inkscape:groupmode="layer"
     id="layer1"
     transform="translate(0,-282.88889)">
    <g
       id="g5691"
       transform="matrix(0.03396073,0,0,0.03672217,-13.299758,253.04197)">
      <path
         style="fill:#b8860b;stroke:#000000;stroke-width:1px;stroke-linecap:butt;stroke-linejoin:miter;stroke-opacity:1"
         d="m 579.06062,1011.8656 c -9.16884,19.0443 -60.03364,20.4139 -60.03364,20.4139 l 0.59969,7.796 46.58296,-12.9875 -37.66028,43.3236 c 0,0 26.8656,-24.1386 38.45328,-36.333 4.77995,-5.0302 -3.77382,31.4149 -3.77382,31.4149 l 7.97169,-28.4164 c 8.37303,-29.8471 37.18113,54.5723 37.18113,54.5723 l 2.99848,-11.9939 c 0,0 -19.33322,-23.4446 -12.76926,-33.3897 5.23545,-7.9323 28.49145,-1.1048 28.49145,-1.1048 0,0 -6.27869,-9.4484 -11.31318,-10.824 -6.40689,-1.7507 -19.4014,4.5391 -19.4014,4.5391 0,0 -8.74762,-14.4811 -4.19787,-19.1902 11.57841,-11.9841 49.17504,8.9954 49.17504,8.9954 l 25.53334,15.3936 c 0,0 -41.53196,-36.552 -65.71295,-31.5854 -23.4532,4.8172 66.56622,-26.9863 66.56622,-26.9863 l -36.36348,7.5149 c 0,0 -18.32572,13.4708 -23.9449,7.3019 -6.94099,-7.6201 11.73303,-28.6098 11.73303,-28.6098 l -7.19635,-28.1857 -4.79756,27.586 c 0,0 -4.47047,28.79452 -15.75525,30.306 -22.72431,3.0437 -46.6682,-50.5273 -46.6682,-50.5273 0,0 13.7688,43.3441 30.63958,50.8058 5.38292,2.3808 5.22533,6.924 3.66225,10.1706 z"
         id="path9870"
         inkscape:connector-curvature="0"
         sodipodi:nodetypes="accccscsccacacaccsccacccacsa" />
      <path
         id="path3388"
         transform="translate(0,752.36218)"
         d="m 500.00977,69.277344 c -8.45065,18.659201 -9.25613,38.186146 -4.67383,54.119136 -7.69482,-8.14299 -14.45176,-12.0139 -20.38282,-14.47851 1.49238,7.41714 3.53238,14.44527 5.99024,21.01953 -19.21495,-8.09276 -31.00803,-6.45537 -39.88477,-3.41992 15.49017,18.83365 35.25929,27.91786 52.23633,27.84961 10.90556,16.39406 24.52242,26.92056 37.1211,28.875 -1.26762,-2.95835 -2.51505,-5.77129 -3.75,-8.49414 5.26775,8.43147 12.06822,14.91575 19.68554,18.57226 -4.33583,-50.48005 -17.74764,-66.53284 -29.40429,-75.44531 -2.80766,15.67207 -1.26878,30.62875 3.1914,43.22461 -2.23655,-4.41716 -4.41727,-8.47084 -6.54101,-12.16211 0.0397,-0.0244 0.0815,-0.0457 0.12109,-0.0703 -0.0931,-0.0656 -0.18249,-0.12422 -0.27539,-0.18946 -0.58687,-1.01671 -1.16967,-2.01564 -1.74805,-2.98046 6.58496,-46.690162 -2.56901,-65.030997 -11.68554,-76.419926 z m 37.54492,12.609375 c -14.263,20.261251 -12.52611,42.806011 -0.45313,53.457031 11.3075,-32.5264 6.27034,-45.412121 0.45313,-53.457031 z m 84.60156,0.634765 c -10.09474,28.485726 -2.00453,56.051276 14.48437,68.769536 -2.06602,1.79488 -3.96518,3.69416 -5.67578,5.68164 -0.56897,-5.74061 -2.06802,-10.369 -3.77929,-14.36524 -5.8869,6.03465 -10.45088,12.59816 -13.77539,19.32617 1.8896,-40.2062 -6.96504,-56.46169 -16.17188,-65.841793 -0.0523,-0.34386 -0.0962,-0.70148 -0.15234,-1.039063 -0.17804,0.113164 -0.34686,0.233329 -0.52344,0.347657 -0.60222,-0.591515 -1.2046,-1.160064 -1.80469,-1.701172 -0.44668,1.260456 -0.84436,2.51775 -1.2207,3.773437 -24.97651,17.967844 -33.89886,47.914864 -25.85547,69.671874 11.85656,-13.93706 19.2982,-25.60396 23.83984,-35.54101 0.97911,5.06019 2.52948,9.8074 4.57618,14.11718 -0.64427,0.61891 -1.27423,1.24651 -1.88868,1.88282 -1.56175,-1.82772 -3.1546,-3.44073 -4.73437,-4.86524 -1.86685,5.26796 -3.098,10.5016 -3.7832,15.61914 -10.09119,15.73714 -12.7569,34.11895 -7.58594,48.92774 4.54884,-5.12686 8.45246,-9.9394 11.82812,-14.48243 4.01989,9.39624 10.29869,16.91949 18.0293,21.41407 0.23344,-3.92288 0.35923,-7.61025 0.4043,-11.11133 1.20932,4.3257 3.02909,8.3204 5.43945,11.83398 -0.43765,2.40214 -0.61976,4.83158 -0.51953,7.25977 10.95292,-4.74633 19.28416,-9.41548 25.66406,-13.94922 -1.95489,6.58385 -2.40725,13.20996 -1.21289,19.38281 3.03981,-2.35103 5.83748,-4.62918 8.44531,-6.84765 -2.40901,3.67289 -4.18285,7.5837 -5.2207,11.61914 -2.04933,1.22183 -3.95479,2.64887 -5.67773,4.2832 36.06531,17.16103 51.83232,12.41045 62.08984,6.20117 -11.72436,-10.68423 -24.99714,-15.57026 -36.94531,-15.57422 27.69718,-9.30906 37.02399,-20.81335 41.99414,-30.76562 0.10155,1.49483 0.28369,2.97274 0.56445,4.42383 35.88452,-27.75357 40.53392,-46.07636 40.75,-59.57227 -27.21908,10.78291 -42.2897,34.13511 -41.35742,54.33008 -2.8194,-0.13976 -5.58718,-0.1324 -8.28906,0.0234 14.89767,-26.73654 13.54697,-41.80066 10.25,-52.65625 -19.1049,15.70553 -27.21497,37.3008 -25.01563,55.04687 -6.55567,1.77968 -12.52418,4.43034 -17.71875,7.74024 14.31495,-16.15958 16.72704,-28.21716 16.88086,-37.82422 -1.98827,0.78765 -3.90447,1.64876 -5.76172,2.56445 15.57121,-28.96949 13.72292,-44.63155 9.94532,-55.72852 -7.55504,6.64377 -13.25341,14.20363 -17.17579,22.02149 -9.39623,2.18296 -17.70801,6.03615 -24.56836,10.97656 1.46757,-41.62737 -8.98335,-56.546896 -18.77148,-65.373046 z m -62.93359,16.457032 c -19.05941,24.209874 -19.06502,54.216034 -5.51758,70.351564 16.64111,-40.88397 11.77434,-58.73919 5.51758,-70.351564 z m 212.20117,49.753904 c -20.47802,8.11242 -34.08019,23.3412 -39.16797,38.98633 -17.04465,4.68878 -29.99277,13.78376 -35.44922,24.74023 2.86273,-0.20166 5.59835,-0.4313 8.25391,-0.67968 -8.66137,2.0979 -16.15687,6.24195 -21.5293,12.05859 43.61647,12.4725 61.13323,5.36492 72.13477,-2.45508 -12.28268,-7.69477 -25.28201,-11.15499 -37.18946,-11.1582 4.38,-0.61766 8.43844,-1.30603 12.17578,-2.05664 0.009,0.0452 0.0127,0.0915 0.0215,0.13672 0.0835,-0.0646 0.16094,-0.1269 0.24414,-0.19141 1.02937,-0.20838 2.04203,-0.41923 3.02539,-0.63672 37.13082,21.28603 55.27504,18.84294 67.58203,14.16797 -13.07633,-13.86253 -29.19778,-20.9708 -43.93945,-21.94922 9.15807,-4.42566 14.45105,-9.37859 18.31445,-14.0332 -6.66824,-1.04561 -13.17717,-1.45962 -19.43164,-1.3418 12.60645,-15.04321 14.80844,-26.42927 14.95508,-35.58789 z m -312.49414,7.12696 c -5.76246,-0.006 -10.46689,1.09824 -14.55469,2.49609 20.58964,25.03382 48.73257,32.83931 67.83594,24.81836 0.92217,3.03072 1.96608,5.9563 3.1289,8.75976 -31.33743,-6.44294 -45.34187,0.23485 -54.5625,7.50391 22.29014,14.73666 46.13284,15.79004 62.40235,7.28125 4.17086,6.31293 8.95946,11.70199 14.09375,16.04297 -18.73209,-8.51125 -30.7152,-8.07563 -39.70117,-5.60742 -2.25925,-1.44831 -4.46404,-2.54448 -6.57618,-3.43946 -0.0216,2.84441 0.13837,5.61466 0.44727,8.3086 -4.86582,-0.67478 -9.28356,-1.03698 -13.29297,-1.12696 -6.80051,-9.24854 -13.58245,-13.20096 -19.60156,-15.61132 0.075,6.09788 0.94137,11.85655 2.43945,17.17578 -8.81622,2.05506 -14.66356,5.83071 -19.25195,9.7207 1.90935,1.17409 3.82609,2.24448 5.74609,3.22656 -0.69429,-0.0493 -1.37301,-0.078 -2.03711,-0.0918 8.39198,24.50746 28.61658,37.18465 45.12891,33.84765 -9.82222,-14.15295 -18.15209,-22.44428 -25.3125,-27.27929 2.07688,0.46302 4.13797,0.82934 6.17383,1.08593 6.48844,7.99453 14.80436,13.2743 23.47851,14.79688 -1.72189,-5.69876 -3.48947,-10.75101 -5.28711,-15.25977 2.39138,-0.45313 4.70053,-1.06341 6.91407,-1.82226 6.42061,14.14085 17.67144,23.85195 29.76953,26.22461 -3.85053,-13.7242 -8.03362,-23.80868 -12.32032,-31.33399 18.79711,12.06583 39.32635,13.46309 53.1836,4.85938 -3.40351,-2.39585 -6.64577,-4.56162 -9.75977,-6.54688 4.43983,1.26807 8.86938,1.78042 13.14453,1.47266 1.94561,1.74261 4.03511,3.26221 6.25586,4.51562 3.01106,-44.12626 -7.47459,-59.14929 -17.30078,-67.83593 -5.89623,16.12235 -5.63041,31.86294 -1.15625,44.50195 -19.3486,-26.05116 -33.92376,-31.90936 -45.37304,-33.69922 1.40179,-0.62816 2.75634,-1.33424 4.04882,-2.13672 -27.62739,-19.44788 -45.42611,-24.83456 -58.10351,-24.84765 z m 148.21484,4.87109 c 1.59646,1.41789 3.28487,2.68674 5.05274,3.79687 -2.46319,5.54334 -4.10155,11.16424 -4.93555,16.66602 -0.649,-5.03907 -1.55341,-9.44323 -2.65234,-13.32227 1.03046,-2.49131 1.86354,-4.86757 2.53515,-7.14062 z M 659,160.79102 c -0.29562,5.97326 0.44453,11.70003 2.19531,16.87695 -0.47741,0.35682 -0.93817,0.72427 -1.40234,1.08984 0.0136,-0.0758 0.0317,-0.15496 0.0449,-0.23047 -16.11994,1.8461 -28.81392,8.78483 -36.85547,17.98828 3.34773,-8.0637 5.50767,-15.05525 6.76367,-21.1621 12.72155,-4.78417 22.16751,-9.69064 29.25391,-14.5625 z m 87.85742,70.18945 c -4.31825,0.0161 -8.39807,1.10429 -11.9375,3.25195 23.83014,21.0126 36.15544,20.58096 44.66016,17.85156 -9.09662,-14.18269 -21.68713,-21.14477 -32.72266,-21.10351 z m -32.99414,5.14648 c -4.3854,-0.0364 -8.60101,0.72483 -12.45703,2.30078 29.21729,28.64618 45.65573,29.99199 57.2832,28.02149 -11.33705,-19.87014 -29.16402,-30.19231 -44.82617,-30.32227 z m -285.86719,8.00586 c -1.07905,0.003 -2.10557,0.081 -3.08593,0.20117 7.72533,19.24547 23.64578,27.46647 35.84765,22.91797 -15.06989,-19.43462 -25.20832,-23.14016 -32.76172,-23.11914 z m 234.20899,4.3711 c 5.93468,11.91512 11.59432,21.01739 16.9668,28.02734 -3.42835,2.2344 -6.46078,4.78739 -9.03321,7.60156 -22.77519,-9.02825 -46.33455,-6.27205 -60.2207,5.31641 3.90994,1.47872 7.61554,2.78073 11.16015,3.94336 -4.80629,-0.22067 -9.48239,0.24977 -13.86914,1.44336 -2.29361,-1.18832 -4.70122,-2.13864 -7.20312,-2.81836 3.84027,41.22 17.08788,52.79991 28.65234,58.69531 3.57219,-16.08165 0.81153,-30.49811 -5.82422,-41.16797 24.1822,19.83493 40.22709,22.11646 52.38672,21.32422 -1.35431,0.87586 -2.64779,1.81539 -3.86132,2.82813 46.15197,17.4544 66.03827,11.97782 78.90234,5.07812 -25.31067,-18.63611 -55.73745,-19.81875 -74.28906,-8.37305 -1.43533,-2.59139 -2.97968,-5.05962 -4.62891,-7.39062 33.52647,-0.74956 47.00169,-9.8728 55.41992,-18.52149 -25.44872,-8.8041 -50.34979,-4.69584 -65.88476,6.59375 -5.32278,-4.91672 -11.1414,-8.85166 -17.15235,-11.75 23.21276,4.28753 35.93703,0.10461 45.09375,-4.80664 -1.84915,-1.36152 -3.72775,-2.62163 -5.625,-3.79882 3.15031,-0.1156 6.12641,-0.29859 8.94727,-0.53907 7.61761,6.16151 14.49097,8.59166 20.54687,9.89649 -0.80068,-4.37582 -1.95109,-8.52417 -3.3789,-12.43946 4.19932,-0.94325 7.9002,-2.05303 11.16601,-3.29492 11.58342,12.82183 21.60952,16.57957 30.02735,18.21875 -2.28306,-11.21222 -6.79062,-20.92435 -12.6211,-28.76758 1.25463,-1.15874 2.41289,-2.32485 3.46485,-3.48046 -2.72304,-0.8461 -5.43253,-1.53276 -8.12305,-2.09766 -9.86914,-10.51305 -22.32998,-16.39886 -34.22266,-16.22266 2.9072,5.55692 5.73875,10.47507 8.5,14.86524 -3.05044,0.33446 -6.01194,0.84706 -8.86914,1.52343 -9.97127,-12.55323 -23.46618,-19.82085 -36.42773,-19.88671 z m -155.13672,15.23828 c -4.87634,-0.067 -8.83207,0.94486 -12.25,2.21484 8.41595,11.22822 19.13795,17.67511 29.51953,19.66016 -25.61149,3.49599 -35.62253,11.9456 -41.5918,19.76953 0.15968,-1.31587 0.24747,-2.62993 0.24414,-3.9375 -35.78471,18.1658 -42.86513,33.31621 -45.29101,45.00781 25.44007,-4.85588 42.40791,-22.64861 44.94726,-40.35156 2.42644,0.58895 4.83369,1.04279 7.20704,1.35547 -17.37783,20.76122 -18.70332,34.07517 -17.63868,44.05468 19.20602,-10.47922 29.83547,-27.90018 30.86719,-43.68554 5.99133,-0.45932 11.61721,-1.77259 16.67969,-3.78711 -15.11903,11.66809 -19.21454,21.74567 -20.94141,30.06836 1.85766,-0.35458 3.66654,-0.78402 5.43164,-1.27149 -18.3343,22.59049 -19.32704,36.50626 -17.88476,46.77539 1.65867,-0.97793 3.24374,-2.01275 4.76562,-3.08789 14.11935,1.31085 27.12154,-1.18823 37.78516,-6.23046 -9.2383,41.75855 -1.46708,58.77047 6.77148,69.50585 15.49971,-26.88066 12.46654,-56.22141 -1.8125,-72.13476 2.42085,-1.42749 4.69324,-2.9895 6.79102,-4.67774 -0.49486,5.90159 0.15545,10.85362 1.13867,15.20704 7.06901,-4.99683 12.89933,-10.7747 17.50977,-16.94922 -10.24365,43.85901 -2.30582,61.39478 6.11914,72.37304 16.39928,-28.44076 12.05383,-59.63357 -4.41016,-74.76367 3.51943,-5.13755 6.21888,-10.50716 8.08594,-15.90625 -1.23188,22.63866 4.65144,34.13528 10.79492,42.14063 0.26797,-0.46474 0.51455,-0.93231 0.77148,-1.39844 0.43161,4.06091 1.37356,7.58765 2.48243,10.75391 26.39751,-21.583 32.56673,-52.8162 20.65039,-72.1836 -5.78374,8.40765 -10.24231,15.90192 -13.64649,22.63086 -0.7009,-14.66034 -6.36535,-27.49214 -15.60547,-35.41992 -0.96708,3.9194 -1.78439,7.62217 -2.48242,11.15039 -0.41474,-4.5951 -1.50523,-8.97033 -3.28515,-12.96875 0.88917,-2.34344 1.52581,-4.76251 1.87695,-7.23242 -16.55212,3.81345 -28.01836,8.41338 -36.09766,13.31836 6.16276,-7.54706 9.56046,-16.23351 9.53907,-24.63867 -3.03046,1.53838 -5.83737,3.05396 -8.47071,4.54882 2.70138,-2.79141 4.88831,-5.89501 6.45899,-9.22851 1.9842,-0.72199 3.87763,-1.64639 5.64648,-2.78125 -18.69873,-13.71116 -31.3664,-17.77241 -40.67578,-17.90039 z m -99.08398,2.70508 c -2.60784,0.0262 -4.98654,0.30867 -7.19141,0.69726 9.06342,14.21375 21.89204,23.06406 34.53906,26.35938 -8.69037,2.32695 -14.11161,5.75457 -18.24023,9.1582 5.62037,2.01418 11.20634,3.45383 16.66015,4.38867 -13.4471,10.98043 -17.24838,20.50969 -18.89453,28.44336 19.13973,-3.6533 33.48433,-14.62974 40.5,-27.38086 15.58918,-1.24753 28.34963,-7.00505 34.9082,-15.62109 -2.52244,-0.29968 -4.93908,-0.55271 -7.28906,-0.77735 7.87605,-0.38594 15.07683,-2.74393 20.71094,-6.9082 -35.8325,-18.0713 -52.23117,-14.80088 -63.08789,-9.83008 9.39926,8.72541 20.12386,13.88879 30.47266,15.86524 -3.91135,-0.18994 -7.55348,-0.26683 -10.92774,-0.23438 6e-5,-0.0403 0.004,-0.0808 0.004,-0.12109 -0.0835,0.0424 -0.16094,0.0846 -0.24414,0.12695 -0.9288,0.0104 -1.84403,0.0268 -2.73438,0.0527 -23.21201,-19.91595 -38.22744,-24.32896 -49.18554,-24.21875 z m 148.10546,58.10546 c -4.88083,7.51589 -8.36206,14.17292 -10.76757,20.10352 -15.48263,2.77318 -26.80294,6.47685 -35.22461,10.64258 3.37911,-6.39884 5.26822,-13.06323 5.62109,-19.44336 16.5348,1.09082 30.57489,-3.54024 40.37109,-11.30274 z m -35.00195,0.94336 c -2.51794,3.34256 -4.13067,6.65424 -5.3418,9.8086 0.0943,-2.27177 -0.007,-4.5031 -0.30664,-6.67188 1.97341,-0.96109 3.85308,-2.01384 5.64844,-3.13672 z m 117.86719,2.84571 c 12.46457,45.4982 28.91116,57.40408 42.41015,63.11718 0.43927,-15.0094 -3.51662,-28.43535 -10.13085,-39.06836 3.01713,3.58546 5.91951,6.84706 8.70507,9.78907 -0.0377,0.0312 -0.0777,0.0605 -0.11523,0.0918 0.108,0.0408 0.21064,0.0766 0.31836,0.11719 0.76797,0.80858 1.53021,1.60046 2.28125,2.36328 0.53667,44.34232 12.92655,59.25718 24.18164,67.78907 5.82229,-18.96053 3.57418,-37.08918 -3.69531,-50.76563 9.26951,5.85142 16.88888,7.97321 23.43164,8.97656 -2.71866,-6.50282 -5.94408,-12.53062 -9.53125,-18.05273 21.21016,3.34935 33.18653,-0.66947 41.91601,-5.35156 -19.0421,-14.0206 -40.98276,-18.16174 -58.58398,-14.48243 -13.90109,-12.7546 -29.6856,-19.53659 -43.06446,-18.65039 1.78259,2.45147 3.52095,4.77393 5.23243,7.01563 -6.79582,-6.63291 -14.87531,-11.14835 -23.35547,-12.88867 z m -3.84375,23.6289 c -10.81104,41.1416 -2.94441,56.5249 5.3789,65.8711 15.95121,-26.3231 11.22148,-53.9183 -5.3789,-65.8711 z m -14.1543,4.98633 c -26.26846,39.9007 -24.05258,59.3734 -19.125,72.55859 25.93813,-22.0754 31.44652,-53.41929 19.125,-72.55859 z m 36.74414,22.73047 c -6.597,32.3199 0.66053,43.09676 7.96485,49.25586 11.59865,-21.6703 6.2404,-42.03256 -7.96485,-49.25586 z"
         style="fill:#008000;fill-opacity:1;stroke:#005500;stroke-width:1;stroke-linecap:round;stroke-linejoin:round;stroke-miterlimit:4;stroke-dasharray:none;stroke-opacity:1"
         inkscape:connector-curvature="0" />
    </g>
  </g>
</svg>
