<?xml version="1.0" encoding="UTF-8" standalone="no"?>
<!-- Created with Inkscape (http://www.inkscape.org/) -->

<svg
   xmlns:dc="http://purl.org/dc/elements/1.1/"
   xmlns:cc="http://creativecommons.org/ns#"
   xmlns:rdf="http://www.w3.org/1999/02/22-rdf-syntax-ns#"
   xmlns:svg="http://www.w3.org/2000/svg"
   xmlns="http://www.w3.org/2000/svg"
   xmlns:sodipodi="http://sodipodi.sourceforge.net/DTD/sodipodi-0.dtd"
   xmlns:inkscape="http://www.inkscape.org/namespaces/inkscape"
   width="40pt"
   height="40pt"
   viewBox="0 0 14.11111 14.111111"
   version="1.1"
   id="svg469"
   inkscape:version="0.92.5 (2060ec1f9f, 2020-04-08)"
   sodipodi:docname="tree4.svg">
  <defs
     id="defs463" />
  <sodipodi:namedview
     id="base"
     pagecolor="#ffffff"
     bordercolor="#666666"
     borderopacity="1.0"
     inkscape:pageopacity="0.0"
     inkscape:pageshadow="2"
     inkscape:zoom="3.959798"
     inkscape:cx="88.873016"
     inkscape:cy="-13.766646"
     inkscape:document-units="mm"
     inkscape:current-layer="layer1"
     showgrid="false"
     units="pt"
     inkscape:window-width="1920"
     inkscape:window-height="1015"
     inkscape:window-x="0"
     inkscape:window-y="0"
     inkscape:window-maximized="1" />
  <metadata
     id="metadata466">
    <rdf:RDF>
      <cc:Work
         rdf:about="">
        <dc:format>image/svg+xml</dc:format>
        <dc:type
           rdf:resource="http://purl.org/dc/dcmitype/StillImage" />
        <dc:title></dc:title>
      </cc:Work>
    </rdf:RDF>
  </metadata>
  <g
     inkscape:label="Layer 1"
     inkscape:groupmode="layer"
     id="layer1"
     transform="translate(0,-282.88889)">
    <g
       transform="matrix(0.09678251,0,0,0.09342193,-31.960365,215.11223)"
       id="layer1-2"
       inkscape:label="Camada 1">
      <g
         style="stroke-width:1;stroke-miterlimit:4;stroke-dasharray:none"
         id="g4413">
        <path
           style="fill:#008000;stroke:#000000;stroke-width:1;stroke-linecap:round;stroke-linejoin:round;stroke-miterlimit:4;stroke-dasharray:none;stroke-opacity:1"
           d="m 453.6327,831.64426 3.6167,4.44859 -3.27657,1.86505 1.77434,1.59293 -2.01384,1.79701 1.44413,3.29925 -1.86008,0.7334 -2.14989,-0.72844 1.00054,2.90101 -3.41262,-0.66041 0.38052,3.14547 -2.52545,0.13606 0.60232,3.3446 -1.92811,-0.52932 -0.48397,2.76991 -3.23618,-1.30311 -0.30257,6.1372 -5.34569,-5.19971 -2.76,7.53597 -2.48506,-3.0321 -1.37114,1.97346 -2.2406,-2.41208 -3.56638,0.4032 3.15044,3.62945 -4.03265,-0.41594 0.80143,3.1228 -2.99171,-0.68308 0.44855,4.4082 -3.96959,-3.16319 -1.96849,2.63883 -2.26327,-2.83298 -1.67867,4.10068 -2.41705,-1.76938 -0.39326,4.45356 -2.66151,-2.3894 -1.76937,2.41704 -1.44414,-3.29925 -4.20412,4.23674 -0.89213,-4.80645 -1.39879,-2.45742 -0.97291,1.52986 -1.33075,-1.19469 -1.94581,3.05974 -2.08683,-3.47569 -2.58852,2.8833 -0.97788,-2.4801 -4.24947,3.39491 -0.18141,-3.36727 -3.61174,-0.43862 -0.005,-4.00997 -3.27657,1.86504 -1.17699,-2.25831 -3.89659,2.10951 0.63773,-3.83353 -4.82911,0.47122 0.0631,-2.74724 -3.63442,-0.85954 2.5205,-4.14602 -2.41704,-1.76937 -3.21351,-0.88221 2.01384,-1.79701 -4.76605,-2.27602 2.65655,-1.62057 -3.25886,-1.72402 1.99116,-2.21793 -4.52158,-1.656 -5.80203,2.0011 0.43862,-3.61174 -4.10067,-1.67867 3.85124,-2.95133 -4.65764,-4.18144 1.17203,-1.75167 -4.29979,-1.45687 0.77379,-1.30808 -3.63442,-0.85953 2.21296,-2.01882 -3.21351,-0.8822 2.83299,-2.26327 -4.34515,-2.2987 3.12281,-0.80143 -1.22234,-3.10012 1.66096,-0.51161 -4.65764,-4.18146 2.03651,-1.3761 -3.21846,-4.89218 3.41262,0.66042 -0.84679,-3.96462 2.34901,0.50664 -2.70685,-3.23122 3.36727,-0.1814 -3.15045,-3.62945 2.34902,0.50665 -1.02323,-3.32193 3.85621,1.05865 -0.22676,-4.20909 2.45743,-1.39878 -4.65764,-4.18145 2.03652,-1.3761 -2.13218,-4.31751 4.38553,-0.86946 -1.42146,-2.87833 2.94636,-0.15873 -0.67034,-4.60733 3.7655,-0.62498 -2.8833,-2.58852 2.72457,-0.35785 -1.46681,-3.72015 2.74726,0.0631 -0.57965,-2.92369 5.43144,2.87338 1.69638,-7.68974 3.05974,1.94581 0.26217,-2.96904 4.3905,3.14052 1.96849,-2.63883 1.48948,4.14106 -1.87,-7.28654 3.63442,0.85953 -1.71128,-4.34018 2.5708,0.70577 -0.80143,-3.12281 c 0,0 3.69747,-1.88772 4.80644,-0.89214 1.10896,0.99559 0.70576,-2.5708 0.70576,-2.5708 l 3.50333,2.34405 1.01329,-4.69803 3.05975,1.94582 2.80534,-6.69416 2.974,4.27215 2.25334,-5.18695 1.73395,4.76108 5.44418,-4.72567 1.73396,4.76109 2.34404,-3.50333 1.53484,4.98289 2.78763,-3.10509 2.06416,3.05477 2.00887,-5.80699 1.62057,2.65654 1.70135,-3.67976 3.32689,2.98675 3.72512,2.54316 2.52049,-4.14602 2.92865,3.43032 0.68309,-2.9917 2.26326,2.83297 1.76938,-2.41703 1.29037,4.36285 2.76495,-3.52601 0.7157,5.44915 6.68919,-1.20463 -1.08132,3.4353 3.34459,-0.60231 -1.37114,1.97345 5.8247,-1.58018 -3.80589,3.79314 5.69857,3.9143 5.09626,0.56971 -3.18587,3.54868 3.19084,0.46129 -0.4613,3.19084 5.67093,-0.51657 -1.14935,2.17256 2.61617,1.54758 -1.14936,2.17258 2.43971,2.19028 -1.79205,1.99613 3.58908,0.0177 -0.99559,1.10896 3.03707,1.52491 -1.14935,2.17257 2.46239,2.61119 -3.38498,3.77047 3.15044,3.62945 -2.85566,1.84236 2.1095,3.8966 -2.72456,0.35785 2.95132,3.85124 -1.34846,2.39436 5.80699,2.00889 -2.03652,1.3761 2.86063,2.1676 -2.21296,2.01881 1.79701,2.01384 -2.67922,1.19966 2.8833,2.58852 -3.74282,1.0459 4.12335,2.09959 -1.57026,2.19524 2.48506,3.0321 -4.7384,2.15486 -0.35289,1.2854 1.73396,4.76109 -5.96076,-0.94527 1.82466,6.44472 -5.2727,0.073 1.31304,4.78375 -3.32688,-2.98674 -0.7915,4.89714 z"
           id="path3022"
           inkscape:connector-curvature="0" />
        <path
           style="opacity:0.67333332;fill:#6b8e23;stroke:none;stroke-width:1;stroke-miterlimit:4;stroke-dasharray:none"
           d="m 365.05636,832.40218 c -1.84403,2.18038 3.40268,4.88674 3.69938,7.72689 0.22806,2.18317 -2.10372,4.2737 -1.55473,6.399 0.44188,1.71068 2.3543,2.63677 3.58939,3.90021 1.67759,1.71611 2.97464,4.06109 5.1856,4.99435 2.40617,1.01567 5.22107,0.15979 7.83116,0.25245 1.9729,0.07 3.94876,0.36866 5.91798,0.22939 2.86423,-0.20257 5.83207,-0.41951 8.47504,-1.54182 1.02981,-0.43729 1.72558,-1.45702 2.72553,-1.95886 1.83087,-0.91887 3.92726,-2.54249 5.85799,-1.85788 0.93491,0.33151 0.7069,2.13876 1.63622,2.48564 1.67851,0.6265 3.46816,-0.90777 5.17411,-1.45514 3.54251,-1.13664 7.07807,-2.32589 10.49669,-3.79369 2.40726,-1.03357 4.94451,-1.93025 7.02727,-3.51936 2.80689,-2.14161 4.41885,-5.55653 7.07578,-7.88157 2.01926,-1.76704 4.8506,-2.54541 6.65035,-4.53557 1.15891,-1.2819 2.16145,-2.85521 2.47706,-4.55424 0.51914,-2.79463 -1.8473,-5.70869 -1.11231,-8.45446 1.6531,-6.17567 14.57286,-9.52848 11.66664,-15.22283 -1.73086,-3.39139 -8.17163,2.29635 -11.41849,0.30757 -4.74279,-2.90508 -1.85113,-16.6619 -7.178,-15.0625 -5.00792,1.50363 3.99793,10.63762 2.16815,15.53579 -0.91876,2.45946 -4.53193,2.95829 -5.93648,5.17646 -1.55298,2.45259 -1.02899,5.80477 -2.36707,8.38091 -1.51295,2.91282 -3.69087,5.539 -6.21342,7.63905 -1.84936,1.53961 -4.15285,2.44679 -6.33341,3.46449 -1.44984,0.67666 -3.04161,1.02779 -4.47023,1.74816 -1.56109,0.78717 -2.87727,2.00835 -4.44022,2.79179 -2.36154,1.18373 -4.8391,2.18063 -7.39423,2.85103 -1.69248,0.44406 -3.70565,1.67928 -5.1941,0.75938 -1.72475,-1.06594 -0.0107,-5.05306 -1.90468,-5.77678 -2.39653,-0.91575 -4.43669,2.57777 -6.67034,3.83981 -1.7037,0.96259 -3.21195,2.48 -5.13412,2.84665 -2.47778,0.47264 -5.01814,-0.54871 -7.50421,-0.97563 -1.99831,-0.34316 -4.09093,-0.45914 -5.94797,-1.27303 -1.32698,-0.58158 -2.24323,-1.88179 -3.5494,-2.50871 -1.04147,-0.4999 -2.58492,-1.83902 -3.33092,-0.95696 z"
           id="path4393"
           inkscape:connector-curvature="0"
           sodipodi:nodetypes="caaaaaaaaaaaaaaaaaaaaaaaaaaaaaaaaaaaac" />
        <path
           style="fill:none;stroke:#000000;stroke-width:0.80000001;stroke-linecap:round;stroke-linejoin:round;stroke-miterlimit:4;stroke-dasharray:none;stroke-opacity:1"
           d="m 444.42363,830.64724 -1.25408,4.86958 -3.2519,-1.72034 0.14934,2.77207 -2.72074,-1.24348 0.4285,3.2625 -1.80478,-0.66099 -0.65801,4.20562 -2.61509,-1.62828 -0.55237,3.82082 -1.73986,-1.8018 0.098,4.16489 -2.13823,-2.15944 -0.84511,3.07838 -2.48231,-1.50907 0.12219,2.26806 -2.53363,-0.11625 -0.0755,3.28966 -3.1327,-1.85313 0.94609,3.48735 -2.5366,-2.51709 -1.60113,3.11911 -3.52808,0.19007 1.77465,-2.24387 c 0,0 -2.25448,0.37419 -1.65841,-0.28976 0.59608,-0.66396 1.76107,-2.49589 1.76107,-2.49589 l -3.593,1.33089 -2.38132,5.05667 -1.67495,-2.94262 -2.29224,2.01903 c 0,0 -1.75344,-2.05381 -1.14379,-2.46577 0.60966,-0.41194 1.92102,-1.87264 1.92102,-1.87264 l -4.58745,1.63719 -0.22187,2.91844 -2.37667,-1.89386 -2.55485,4.18143 -2.05975,-3.04825 -0.34406,0.65038 -2.07799,3.65027 -0.17649,-3.27607 -2.70418,1.40936 -0.61263,-1.98889 -2.78267,2.29818 -1.08949,-1.45773 -1.90744,2.12466 -0.17648,-3.27608 -2.63631,2.66939 -1.515,-2.31938 -2.31939,1.515 -1.60707,-1.68257 2.47635,-3.29263 -2.95619,1.42294 1.33555,-3.35753 -4.26756,2.88364 -0.53413,-2.8777 -2.54722,-0.36825 2.91547,-2.17896 -3.98077,-1.1756 3.68505,-1.96769 -2.60151,-1.37628 v 0"
           id="path3020"
           inkscape:connector-curvature="0" />
        <path
           style="opacity:0.5966667;fill:#9acd32;stroke:none;stroke-width:1;stroke-miterlimit:4;stroke-dasharray:none"
           d="m 365.16797,765.14171 c 0,0 -3.56759,1.87525 -4.91617,3.32192 -1.05845,1.13545 -1.46235,2.74491 -2.33036,4.03182 -1.29951,1.92665 -3.01283,3.5542 -4.28953,5.49606 -0.76702,1.16664 -1.2319,2.51553 -2.00991,3.67487 -0.89209,1.32934 -2.33802,2.28405 -3.02599,3.72961 -0.75427,1.58485 -1.12007,3.39863 -1.08108,5.15338 0.0512,2.30543 1.40615,4.41627 1.7197,6.70086 0.23841,1.73708 0.14439,3.50577 0.11348,5.25886 -0.0451,2.55913 -1.12163,5.20015 -0.43619,7.6662 1.08006,3.88582 4.27542,6.86535 6.82233,9.99256 2.1258,2.61016 4.62985,4.88931 7.01505,7.26478 1.75694,1.74977 3.38663,3.66028 5.37233,5.14538 3.6666,2.74224 7.47712,5.7121 11.91697,6.83085 2.02897,0.51127 4.23476,0.29637 6.27493,-0.16821 1.53545,-0.34965 2.9387,-1.15959 4.31177,-1.93066 2.07956,-1.16782 3.5711,-4.58729 5.89576,-4.05406 1.47848,0.33913 0.97153,3.14022 2.25111,3.95483 1.78046,1.13349 4.25642,0.99058 6.31143,0.50918 2.11745,-0.49604 3.60147,-2.48593 5.59355,-3.35843 1.80866,-0.79216 3.84901,-0.93786 5.68479,-1.66495 3.90632,-1.54718 8.37637,-2.62797 11.24185,-5.70077 3.3451,-3.58714 2.92532,-9.52739 5.72354,-13.55569 1.09843,-1.5813 3.08728,-2.39319 4.2023,-3.96282 1.36168,-1.91688 2.37193,-4.14342 2.88001,-6.43916 0.71019,-3.20892 0.84245,-6.64616 0.14824,-9.85857 -0.34813,-1.61095 -1.84466,-2.84522 -2.10913,-4.472 -0.42354,-2.60524 1.42331,-5.26901 0.9351,-7.86291 -0.51926,-2.7588 -2.37211,-5.11868 -3.96682,-7.429 -1.87581,-2.71755 -4.23675,-5.07231 -6.51613,-7.46149 -1.65649,-1.73629 -3.43514,-3.35251 -5.19387,-4.98515 -2.81242,-2.61077 -4.93869,-6.43986 -8.56653,-7.69071 -3.90171,-1.34528 -8.37708,-0.27098 -12.35315,0.83534 -3.46164,0.96318 -6.68999,2.8037 -9.58488,4.93215 -2.77264,2.03857 -4.23298,5.69187 -7.24653,7.35374 -2.15662,1.1893 -4.75965,1.42989 -7.21803,1.57772 -2.2824,0.13726 -4.56713,-0.31349 -6.82859,-0.65115 -2.65797,-0.39686 -7.8994,-1.61248 -7.8994,-1.61248 v 0 l -1.10332,1.58798 v 0"
           id="path4391"
           inkscape:connector-curvature="0"
           sodipodi:nodetypes="caaaaaaaaaaaaaaaaaaaaaaaaaaaaaaaaaaaaaaac" />
        <path
           inkscape:connector-curvature="0"
           id="path3010"
           d="m 365.74769,765.75961 -2.80314,-1.56412 0.78135,1.70913 -1.97182,-0.12536 -0.78081,2.0657 -1.41224,-0.4545 0.14579,3.52876 -1.69331,-1.09244 0.29103,3.28268 -2.31017,-1.5328 0.29569,2.71768 -1.61942,-0.41296 1.56009,1.81334 -1.48356,0.47098 1.17176,0.67627 0.0193,1.51479 -3.25079,-1.30081 0.97184,1.7577 -2.19096,-0.55872 0.41698,1.52185 -1.57881,0.4467 2.13893,2.99897 -2.23625,-0.85336 -0.10462,1.10573 -2.00047,-0.51013 1.1624,1.80629 -1.35965,0.88004 1.27896,1.17548 -2.66466,0.92473 2.16497,1.77885 -2.32161,1.76715 2.4148,0.42705 -2.41686,1.74287 1.63139,0.88784 -0.41173,1.68798 1.46221,0.18413 -1.01196,1.15744 1.88385,1.14096 -0.82138,1.20605 2.28154,1.148 -2.58605,1.03915 0.80268,1.05399 -2.94575,0.28686 3.13421,1.93163 -2.41219,1.17786 1.36226,0.72485 -1.79533,1.61825 1.95516,0.21548 -0.9999,1.63238 2.07907,0.62452 -0.4284,1.7781 1.71467,0.43726 -0.7355,2.36033 2.35285,0.22255 -0.59027,2.11427 2.75056,0.22957 -0.57362,2.02416 2.26228,-0.36677 0.49556,1.63622 1.57881,-0.44668 -0.41173,1.68797 1.55746,0.20844 -1.26911,1.46932 1.74332,0.82201 -0.91672,1.18172 3.50794,0.98891 -0.93069,2.87678 2.27426,0.1081 -0.49034,1.57357 1.98846,0.0352 -0.68084,1.52498 2.31224,-0.63714 0.85996,1.82353 1.1858,-1.01875 0.0646,1.80943 1.85259,-0.84871 0.0313,1.98966 1.05723,-0.86281 0.0599,2.37445 1.2405,-1.85408 0.74804,1.88937 1.17851,-2.05864 0.25038,2.42301 1.7787,-1.52812 0.90992,1.55316 1.07851,-1.51794 0.6861,1.68482 1.35965,-0.88005 -0.13063,2.32586 1.58816,-1.57673 0.65278,1.86507 0.64025,-2.38464 1.86716,1.23116 v 0"
           style="fill:none;stroke:#000000;stroke-width:0.69999999;stroke-linecap:round;stroke-linejoin:round;stroke-miterlimit:4;stroke-dasharray:none;stroke-opacity:1" />
        <path
           style="fill:none;stroke:#000000;stroke-width:0.80000001;stroke-linecap:round;stroke-linejoin:round;stroke-miterlimit:4;stroke-dasharray:none;stroke-opacity:1"
           d="m 367.68981,755.07416 1.82027,-1.9397 1.89145,2.39703 0.56905,-1.84702 2.94561,0.17354 -1.60925,-2.26468 3.59279,-0.50438 -3.34442,-2.32352 2.25993,0.003 0.60986,-2.05437 2.86282,1.11617 0.65068,-2.26171 c 0,0 1.12648,1.58527 1.61157,1.20881 0.48511,-0.37646 1.70368,-3.95729 1.70368,-3.95729 l 2.17365,2.52939 1.2559,-2.20436 1.28623,2.33967 2.18645,-3.27787 1.12299,3.16907 1.98354,-2.76906 v 0"
           id="path3016"
           inkscape:connector-curvature="0" />
        <path
           style="fill:none;stroke:#000000;stroke-width:0.80000001;stroke-linecap:round;stroke-linejoin:round;stroke-miterlimit:4;stroke-dasharray:none;stroke-opacity:1"
           d="m 447.47822,824.11525 -1.93172,-3.84673 4.65773,-0.0486 -1.9172,-2.2053 2.91992,-1.4714 -2.08072,-1.18214 2.75064,-1.10485 -0.87395,-1.28594 3.79392,-0.18549 -2.2616,-2.12874 4.65628,-0.21271 -2.60451,-1.88804 2.75208,-0.9407 -2.76947,-1.02902 4.45803,-3.12906 -1.21692,-1.0452 2.74198,-2.0897 -1.90131,-0.39967 2.40049,-1.68488 -2.76225,-0.20831 3.08491,-2.33037 -5.34213,0.69411 3.2469,-3.51771 -1.54969,0.34447 1.69289,-3.66564 -3.26574,1.38382 -2.42077,-0.61314 2.56977,-2.05142 -2.58858,-0.0824 3.59997,-2.60936 -1.55402,-0.14797 1.70885,-1.86004 -2.41207,0.37172 2.73473,-2.91041 -3.43794,1.4221 0.83197,-3.47427 -2.56685,2.37973 0.1519,-2.33627 -2.40338,1.35658 1.0114,-2.69183 -3.60143,2.44523 3.5855,-4.25082 -3.44519,0.60138 6.0135,-2.81695 -2.93878,-0.66247 2.57412,-1.55901 -3.27879,-0.0935 2.90544,-3.11283 -2.75208,0.94068 2.03002,-4.56291 -3.77796,1.99106 1.68999,-3.99392 -2.23118,1.3183 3.24256,-4.01011 -6.02653,1.33963 2.55672,-3.52872 -4.30178,1.28517 2.89966,-3.76941 -3.77941,1.82691 -0.73077,-4.60706 -2.91703,1.79967 0.83631,-2.98183 -3.43214,2.07868 0.48613,-3.56186 -2.04741,2.59317 0.47889,-4.38257 -1.88102,1.89833 0.4847,-3.72601 -2.05901,1.28004 0.49628,-2.41284 -2.06189,0.95174 0.32264,-2.53873 -3.94582,2.52179 0.14902,-2.66459 -1.36445,1.78351 -0.18958,-1.93145 -1.8984,-0.0714 -0.19102,-2.09559 -1.71321,1.36759 0.15191,-2.3363 -3.77507,2.31937 v 0"
           id="path3018"
           inkscape:connector-curvature="0" />
        <path
           style="fill:none;stroke:#000000;stroke-width:0.69999999;stroke-linecap:round;stroke-linejoin:round;stroke-miterlimit:4;stroke-dasharray:none;stroke-opacity:1"
           d="m 397.35642,836.41323 1.71626,2.92358 0.28796,-1.9635 1.79388,1.17731 1.98372,-1.44231 1.06541,1.17202 1.98585,-3.26217 0.94798,1.89916 1.70004,-3.11853 1.26773,2.62931 1.35551,-2.61135 1.28681,1.24637 -0.38766,-2.47769 1.69011,0.37556 -0.7039,-1.24234 0.89352,-1.37699 2.29919,2.92756 0.13657,-2.11012 1.741,1.68623 0.52069,-1.59792 1.7658,0.44888 -0.22279,-3.85966 1.6066,1.97647 0.76478,-0.94109 1.58963,1.53959 -0.0148,-2.25674 1.81887,-0.0603 -0.50511,-1.75055 3.08308,0.60349 -0.98193,-2.77295 3.26491,-0.34159 -2.0325,-1.68823 3.34059,-0.26827 -1.01234,-1.68123 1.40643,-1.30067 -1.27556,-0.95504 1.65616,-0.49822 -1.09935,-2.04579 1.50475,-0.64485 -1.47221,-2.26672 3.07743,0.45784 -0.12661,-1.38396 2.96562,1.33062 -1.80892,-3.43376 2.99606,0.23892 -0.8553,-1.38896 2.6763,-0.49123 -1.72406,-1.24933 1.93065,-0.93309 -1.59529,-1.68523 1.47647,-1.37299 -1.36257,-1.31962 2.11814,-1.73257 -2.0969,-1.47024 1.83232,-1.58893 -2.46968,-1.69124 1.76228,-1.51662 -2.36572,-0.88975 0.51504,-1.74354 -1.7658,-0.44888 1.40643,-1.30067 -1.35123,-1.02839 2.08771,-0.64086 -1.15809,-1.68222 1.58045,-0.57154 -2.73072,-2.78492 2.61406,-2.09313 -2.0912,-1.3247 1.41209,-1.15504 -1.86413,-1.10469 1.56348,-1.00843 -2.57582,-0.67279 0.28228,-2.10912 -1.7375,0.27927 1.02794,-1.66724 -2.26737,-0.23393 1.168,-1.81188 -1.52173,0.20797 1.37251,-2.17444 -2.29217,1.00343 0.42803,-2.10813 -2.35654,1.22137 1.22109,-2.32107 -2.60625,0.41891 0.0722,-1.89218 -1.93631,0.78747 0.36364,-1.89018 -1.81885,0.0603 1.52388,-2.02782 -2.45488,0.56555 0.50373,-2.03482 -2.04243,1.80588 -1.02933,-2.11811 v 0"
           id="path3006"
           inkscape:connector-curvature="0" />
      </g>
    </g>
  </g>
</svg>
