<?xml version="1.0" encoding="UTF-8" standalone="no"?>
<!-- Created with Inkscape (http://www.inkscape.org/) -->

<svg
   xmlns:dc="http://purl.org/dc/elements/1.1/"
   xmlns:cc="http://creativecommons.org/ns#"
   xmlns:rdf="http://www.w3.org/1999/02/22-rdf-syntax-ns#"
   xmlns:svg="http://www.w3.org/2000/svg"
   xmlns="http://www.w3.org/2000/svg"
   xmlns:sodipodi="http://sodipodi.sourceforge.net/DTD/sodipodi-0.dtd"
   xmlns:inkscape="http://www.inkscape.org/namespaces/inkscape"
   width="40pt"
   height="40pt"
   viewBox="0 0 14.11111 14.111111"
   version="1.1"
   id="svg469"
   inkscape:version="0.92.5 (2060ec1f9f, 2020-04-08)"
   sodipodi:docname="tree3.svg">
  <defs
     id="defs463" />
  <sodipodi:namedview
     id="base"
     pagecolor="#ffffff"
     bordercolor="#666666"
     borderopacity="1.0"
     inkscape:pageopacity="0.0"
     inkscape:pageshadow="2"
     inkscape:zoom="3.959798"
     inkscape:cx="88.873016"
     inkscape:cy="-13.766646"
     inkscape:document-units="mm"
     inkscape:current-layer="layer1"
     showgrid="false"
     units="pt"
     inkscape:window-width="1920"
     inkscape:window-height="1015"
     inkscape:window-x="0"
     inkscape:window-y="0"
     inkscape:window-maximized="1" />
  <metadata
     id="metadata466">
    <rdf:RDF>
      <cc:Work
         rdf:about="">
        <dc:format>image/svg+xml</dc:format>
        <dc:type
           rdf:resource="http://purl.org/dc/dcmitype/StillImage" />
        <dc:title></dc:title>
      </cc:Work>
    </rdf:RDF>
  </metadata>
  <g
     inkscape:label="Layer 1"
     inkscape:groupmode="layer"
     id="layer1"
     transform="translate(0,-282.88889)">
    <g
       transform="matrix(0.09990708,0,0,0.11123397,-30.283646,228.6441)"
       id="g5721">
      <path
         sodipodi:nodetypes="cccccccccccccccccccccccccccccccccc"
         inkscape:connector-curvature="0"
         id="path5723"
         d="m 374.22434,603.70516 c -2.46478,10.97019 -1.19758,7.94921 -10.12546,7.72962 -4.258,0.17793 -10.28161,-0.33015 -9.04624,-6.64659 -6.35667,1.99385 -9.86779,8.96588 -11.57713,2.84529 -2.0453,-1.17625 -1.87522,3.91941 -5.81973,0.93089 -6.41388,4.90692 3.9297,-13.0763 -4.1882,-9.16656 -2.34684,-6.15307 -9.80654,-7.25231 -5.92675,-13.53369 -4.02452,-5.44216 -18.46138,-7.7332 -14.71291,-16.17704 -4.43895,-5.16227 2.31429,-8.43591 8.04375,-12.36858 -1.3176,-8.49021 -4.93371,-15.4759 -15.23472,-21.01043 0.0989,-6.47247 8.11562,-4.97356 6.12307,-12.88364 -0.849,-11.21009 14.51503,-0.36878 17.5549,-10.09632 3.93902,-2.51295 2.95105,-16.31996 7.21873,-19.0931 8.32705,5.4759 4.11256,-6.40741 13.33655,-1.87591 1.38712,0.0273 11.92823,6.6332 11.3137,8.81037 2.74537,-4.58133 9.13294,-14.47784 9.72651,-9.96121 3.70544,-2.44253 4.91427,4.81186 7.187,2.83023 4.21942,4.58485 2.05957,7.689 7.22827,2.20645 0.63718,3.43393 8.23538,-9.09622 12.22896,-3.37376 4.83222,4.01039 4.91659,0.89802 7.02418,6.43926 5.13448,-3.6156 -6.12916,11.05742 1.05443,7.5663 3.18954,1.78043 10.94411,-4.70445 14.79237,-3.72036 -0.85851,5.49016 2.92476,6.11952 6.90605,5.57746 2.77029,0.70296 3.44186,7.32704 6.24842,10.2718 3.8736,-0.20409 -7.56658,14.95364 -7.14784,15.90227 -1.41634,4.82659 18.19173,0.71989 16.23529,5.86833 5.73702,1.56517 -14.49033,3.05926 -8.98039,7.97328 5.10089,5.34516 -7.04964,9.20234 -1.02916,15.36835 -0.36341,2.72865 -15.37834,-0.8311 -15.33737,4.46486 -7.46592,5.42801 2.37572,19.48225 2.03921,29.88286 -4.599,3.78397 -8.69373,-4.89023 -10.57271,1.15929 -6.09475,-1.30988 -6.92863,4.91086 -11.19777,-1.04574 -1.33774,7.7999 -8.15892,10.36469 -10.24128,15.46739 1.82324,-7.21483 -15.86438,-2.92572 -13.12373,-10.34137 z"
         style="fill:#338000;fill-opacity:1;stroke:#225500;stroke-width:0.5;stroke-linecap:butt;stroke-linejoin:round;stroke-miterlimit:4;stroke-dasharray:none;stroke-opacity:1" />
      <path
         sodipodi:nodetypes="ccsccccccccsssscsccsssccsscccsccsscssssccsscsccssscccsssssscsssssssscsscccccsccssssssssscsssccsccccccscsccccsssssssccssssssscccccscsscscssscccsscssssscssscsscssssccssssssccccccccsc"
         inkscape:connector-curvature="0"
         id="path5725"
         transform="matrix(2.0680113,0,0,2.0169068,-177.74807,305.36783)"
         d="m 274.45703,96.431641 c -0.0163,0.0042 -0.0414,0.03541 -0.0742,0.09961 -0.11691,0.228766 -0.45503,0.303309 -0.5332,0.548828 -0.37897,1.190318 0.15267,2.44354 0.50195,3.697261 -0.23383,-1.969404 0.25746,-4.385408 0.10547,-4.345698 z m -0.10547,4.345699 c 0.0442,0.37267 0.11289,0.73019 0.21875,1.05078 -0.0453,-0.34953 -0.12098,-0.69985 -0.21875,-1.05078 z m 0.21875,1.05078 c 0.008,0.0606 0.0219,0.12113 0.0274,0.18165 0.11115,1.23715 0.38547,2.51732 0.10742,3.72656 -0.38036,1.65414 -0.76063,4.01541 -2.35156,4.49219 -1.33174,0.3991 -2.47623,-1.29927 -3.63477,-2.08204 -0.97572,-0.65924 -2.27812,-1.10814 -2.77734,-2.1914 -0.47204,-1.02428 0.12899,-2.26384 0.10742,-3.39649 -0.01,-0.51255 0.30612,-1.82328 -0.10742,-1.53515 -0.96727,0.67392 -0.0708,3.4587 -1.28321,3.50781 -1.61906,0.0656 -4.42341,-2.36278 -4.80468,-0.74805 -0.0353,0.14927 2.42327,0.45175 3.30859,1.73438 0.32537,0.4714 1.119,0.2524 1.60351,0.54687 1.1709,0.71163 1.90616,2.00832 2.99219,2.84961 0.93104,0.72123 2.13689,1.04941 2.99219,1.86328 0.22461,0.21374 0.59149,0.45678 0.53516,0.76563 -0.25067,1.37418 -2.41353,1.35759 -3.41993,2.30078 -0.97322,0.9121 -1.71704,2.06016 -2.45898,3.17773 -0.41554,0.62592 -1.36014,1.27276 -1.20117,1.96094 -0.0358,-0.003 -0.0716,-0.005 -0.10742,-0.006 -0.2563,6.5e-4 -0.5113,0.0355 -0.75782,0.10352 -0.57069,-1.46423 -3.25975,-2.11044 -4.81836,-2.91016 -0.33259,-0.17065 -0.84635,-0.0222 -1.06836,-0.32812 -0.59539,-0.82051 0.0176,-2.04582 0,-3.06836 -0.0322,-1.87435 1.69587,-5.49076 -0.19335,-5.61914 -0.8564,-0.0582 0.79794,0.95274 -0.42774,2.95703 -0.5805,0.94926 0.0954,2.06777 0.0879,3.10156 -0.006,0.84085 0.61066,2.11338 -0.10742,2.51953 -0.75442,0.42671 -1.58809,-0.74178 -2.24414,-1.31445 -0.90654,-0.79132 -1.67737,-1.77608 -2.24414,-2.84961 -0.606,-1.14784 -0.92807,-2.44433 -1.17578,-3.72461 -0.26424,-1.36566 -0.27378,-2.77261 -0.32032,-4.16406 -0.0584,-1.74749 -0.34152,-4.008471 0.67188,-4.777346 -1.46439,-0.3762 -1.15125,2.763556 -1.41992,4.228516 -0.16471,0.89812 0.6878,2.32756 -0.10742,2.74023 -0.3011,0.15625 -0.69673,0.0843 -1.12696,-0.11523 0.55902,0.53784 1.04594,1.11149 1.44727,1.86719 0.15706,0.29574 0.44219,1.22934 0.21484,0.98633 -2.27856,-2.4356 -6.16933,0.65188 -7.38672,1.64843 1.30097,-0.728 5.45121,-2.1799 7.59961,-0.66211 1.70666,1.20571 1.45722,4.16002 2.99219,5.58789 1.40648,1.30835 3.58778,1.33614 5.23633,2.30274 1.09444,0.64171 1.86556,1.97408 2.96289,2.51562 -0.30947,0.37716 -0.50971,0.82752 -0.58008,1.30469 -0.24863,0.0533 -0.50698,0.12831 -0.73437,0.0996 -0.87465,-0.1104 -1.7439,-0.32868 -2.56446,-0.6582 -1.17271,-0.47094 -2.31423,-1.07593 -3.3125,-1.86328 -0.81882,-0.64583 -1.43665,-1.52371 -2.13867,-2.30079 -2.94899,-3.26424 -3.91502,-7.374 -3.52539,-4.27343 0.31572,2.51239 5.79828,5.6907 3.52539,6.68359 -2.08467,0.91067 -9.01921,-0.38448 -11.42578,0.56641 -1.22157,0.48267 5.23713,0.40336 6.72461,0.41992 1.74576,0.0195 3.50248,-0.31903 5.23633,-0.10938 0.84091,0.10168 1.66791,0.34341 2.45703,0.65821 1.27717,0.50948 3.58156,0.56856 3.63476,1.97265 0.0491,1.29605 -2.07852,1.49409 -3.20703,2.08008 -1.56979,0.81514 -3.24134,1.41884 -4.91601,1.97266 -1.36498,0.4514 -2.83351,0.55684 -4.16797,1.0957 -1.24591,0.50311 -4.02974,0.70079 -3.52539,1.97266 0.34833,0.87841 1.7834,-0.50243 2.67187,-0.76563 1.67832,-0.49718 3.33137,-1.08196 5.02149,-1.53515 1.09526,-0.2937 2.46211,-1.53155 3.31445,-0.76758 0.91541,0.8205 -0.10522,2.4999 -0.32227,3.72656 -0.1188,0.67138 -1.1322,1.67537 -0.5332,1.97266 0.4696,0.23306 0.63694,-0.84877 0.92188,-1.29688 0.36355,-0.57176 0.81571,-1.1162 1.00195,-1.77148 0.22408,-0.78846 -0.11435,-1.67204 0.10156,-2.46289 0.0607,-0.2223 0.17573,-0.43373 0.32617,-0.60547 1.1623,-1.32673 2.66337,-2.39374 4.27344,-3.06836 0.42899,-0.17975 1.0063,-0.0207 1.45703,-0.0937 0.20999,0.38744 0.51356,0.71982 0.88477,0.96875 -0.88714,1.10946 -0.81926,2.91657 -1.16602,4.35742 -0.35497,1.47496 -0.60123,2.98242 -0.74804,4.49414 -0.12007,1.23627 0.62065,2.73152 -0.10743,3.72461 -0.62953,0.85868 -2.06505,0.48604 -2.99218,0.98633 -0.87645,0.47294 -1.35977,1.8289 -2.34961,1.86328 -1.49718,0.052 -5.59813,-3.2682 -3.31446,-0.87695 0.84738,0.88729 2.80212,0.58351 3.20704,1.7539 0.83073,2.4012 -0.52395,6.8306 0.85546,4.16211 0.58484,-1.13137 -0.19871,-2.62507 0.2129,-3.83398 0.24431,-0.71757 0.67613,-1.42714 1.2832,-1.86328 0.66526,-0.47796 1.76035,-1.23151 2.34961,-0.65821 1.30849,1.27306 -1.27838,7.76324 0.32031,4.93164 0.45235,-0.8012 0.5898,-1.76201 0.70898,-2.67968 0.1197,-0.92164 -0.37147,-1.94089 0,-2.78907 0.12426,-0.2837 0.54761,-0.3421 0.68164,-0.62109 0.46871,-0.97555 0.144,-2.1697 0.22657,-3.25391 0.1161,-1.52462 0.0459,-3.08115 0.37695,-4.57226 0.29908,-1.34699 1.10308,-2.53432 1.43555,-3.87305 0.0607,-0.24438 0.18573,-0.52529 0.27539,-0.79687 0.10949,0.0135 0.21971,0.0207 0.33008,0.0215 0.23326,-5.5e-4 0.46553,-0.0294 0.6914,-0.0859 0.34886,0.46637 1.05435,0.88043 1.42383,1.32617 1.53519,1.8521 3.8001,3.15939 4.83594,5.34571 0.21171,0.44686 0.23643,0.97596 0.22656,1.47265 -0.0183,0.92166 -0.40574,1.79756 -0.52734,2.71094 -0.18448,1.38564 -0.46056,2.79646 -0.30274,4.18555 0.0581,0.51114 0.44442,0.95618 0.45313,1.4707 0.0768,4.54823 0.52168,-2.38044 0.67968,-3.64062 0.16089,-1.28312 -1.02059,-3.67909 0.22657,-3.875 0.55951,-0.0879 0.35574,1.10609 0.60547,1.62695 0.40406,0.84273 0.94938,1.60652 1.43554,2.40234 0.39688,0.64967 0.96143,1.21416 1.20899,1.9375 0.55358,1.61746 -0.23983,3.59131 0.52929,5.11328 1.31787,2.60786 -0.75526,-3.75283 0.22657,-5.1914 0.38886,-0.56976 1.22787,-0.61678 1.88867,-0.77344 1.32886,-0.31503 2.72298,-0.45032 4.08008,-0.31055 0.83312,0.0858 1.59591,0.53412 2.41797,0.69727 0.0676,0.0134 0.11005,0.0295 0.16406,0.0449 -0.34981,-0.20987 -0.9704,-0.67534 -1.90235,-1.67187 -0.85424,-0.91345 -2.47506,-0.14516 -3.70117,0 -1.20784,0.14299 -2.41494,1.29111 -3.55273,0.85156 -0.81108,-0.31333 -1.14638,-1.36403 -1.51172,-2.16992 -0.51503,-1.13608 -0.39938,-2.50069 -0.90625,-3.64063 -0.49565,-1.1147 -1.29924,-2.0595 -2.03906,-3.02148 -1.19294,-1.55115 -2.72457,-2.81676 -3.85547,-4.41602 -0.28207,-0.39889 -0.32436,-1.03244 -0.6582,-1.35156 l 0.002,-0.002 c 0.42397,-0.48889 0.65637,-1.10726 0.65625,-1.7461 -2.5e-4,-0.0554 -0.002,-0.11075 -0.006,-0.16601 0.0497,-0.0494 0.10256,-0.0931 0.1582,-0.11719 1.5774,-0.68156 3.34211,-0.75606 5.02149,-1.0957 1.17222,-0.23708 2.45867,-1.20608 3.52734,-0.65821 0.42747,0.21916 0.58145,0.82819 0.64063,1.31446 0.14449,1.18723 -0.55497,2.32591 -0.74805,3.50586 -0.20179,1.23318 -0.58207,2.48619 -0.42774,3.72656 0.0871,0.69974 0.3594,1.39058 0.74805,1.97266 1.23864,1.85511 0.0673,-1.86538 0.32031,-3.83594 0.10294,-0.8016 0.56688,-1.5139 0.74805,-2.30078 0.23149,-1.00545 -0.49858,-2.66195 0.42773,-3.06836 0.28173,-0.12361 0.52845,0.32968 0.74805,0.54882 2.61625,2.61082 1.54287,-0.0694 0.96289,-1.0957 -0.53725,-0.95073 -2.9002,0.20265 -3.09961,-0.87695 -0.0663,-0.35887 0.59896,-0.40476 0.85547,-0.6582 0.69305,-0.68478 1.0122,-1.75861 1.81641,-2.30079 0.77274,-0.52096 1.77066,-0.55469 2.67187,-0.76757 1.16432,-0.27504 2.53111,-1.3356 3.52539,-0.65625 0.97104,0.66345 0.30936,2.39719 0.74805,3.50586 0.45711,1.15522 1.08345,2.27678 1.92383,3.17773 0.56683,0.60768 1.30313,1.0369 2.03125,1.42383 3.31287,1.76047 -2.47906,-2.68694 -3.41992,-4.82031 -0.43193,-0.97938 -0.73498,-2.12259 -0.53516,-3.17774 0.1677,-0.88556 1.74606,-1.47558 1.39063,-2.30078 -0.31184,-0.72397 0.12631,0.62744 -2.03126,1.5332 -0.8907,0.37393 -2.04554,0.59255 -2.88476,0.10938 -0.88999,-0.51241 -1.43387,-1.69367 -1.49609,-2.73828 -0.20114,-3.37666 1.22529,-3.08358 0.32031,-3.06836 -0.3526,0.006 -0.55751,0.46136 -0.74805,0.76562 -0.52299,0.83514 -0.61661,1.98476 -0.21484,3.28907 0.24699,0.80182 1.69737,1.30024 1.39062,2.08007 -0.39458,1.00315 -2.19217,0.10658 -3.09961,0.65821 -0.80431,0.48893 -1.05463,1.63544 -1.8164,2.1914 -0.5605,0.40907 -1.26755,0.55591 -1.92383,0.76758 -1.29396,0.41733 -2.63003,0.68871 -3.95508,0.98633 -1.31084,0.29443 -3.1585,-0.26629 -4.10351,0.55859 -0.26929,-0.36106 -0.62617,-0.6522 -1.03907,-0.84765 1.67176,-0.87187 1.54998,-3.7613 2.97266,-5.08008 1.02818,-0.9531 2.67473,-0.9543 3.74023,-1.86328 1.29256,-1.10268 2.32166,-2.58304 2.99219,-4.16407 0.4625,-1.09052 0.0628,-2.47478 0.64063,-3.50586 0.86818,-1.54919 3.36365,-1.82516 3.95507,-3.50585 0.78696,-2.236355 -2.00502,2.46185 -3.74218,2.08203 -0.67577,-0.14775 -1.0757,-0.68336 -1.3086,-1.38868 z m 9.79102,37.0293 c 0.43058,0.25834 0.42441,0.12137 0,0 z m -41.24024,-28.59961 c -0.19822,0.11093 -0.33842,0.20733 -0.38671,0.27149 -0.0973,0.12926 0.0861,-0.0254 0.38671,-0.27149 z m 5.72461,-4.50195 c -0.88268,-0.84925 -0.8013,-0.57616 -2.00276,-1.81265 -0.97518,-1.0036 0.2413,0.99577 2.00276,1.81265 z"
         style="fill:#22241c;fill-opacity:1;stroke:#677821;stroke-width:0.24482211;stroke-linecap:round;stroke-linejoin:round;stroke-miterlimit:4;stroke-dasharray:none;stroke-opacity:1" />
      <ellipse
         id="ellipse5727"
         style="color:#000000;display:inline;overflow:visible;visibility:visible;fill:#338000;fill-opacity:1;fill-rule:nonzero;stroke:none;stroke-width:0.41653553;stroke-linecap:round;stroke-linejoin:round;stroke-miterlimit:4;stroke-dasharray:none;stroke-opacity:1;marker:none;enable-background:accumulate"
         cx="368.33514"
         cy="550.82318"
         rx="4.816896"
         ry="4.5565233" />
    </g>
  </g>
</svg>
